<svg width="15" height="12" viewBox="0 0 15 12" fill="none" xmlns="http://www.w3.org/2000/svg">
<path d="M14.443 0.520509H0.554862C0.481958 0.520351 0.409744 0.536642 0.342363 0.568494C0.274982 0.600346 0.213762 0.64711 0.162211 0.706099C0.11066 0.765089 0.0697941 0.835166 0.0419587 0.91227C0.0141232 0.989374 -0.000136697 1.07202 9.87603e-07 1.15544V10.8981C-0.000136697 10.9816 0.0141232 11.0642 0.0419587 11.1413C0.0697941 11.2184 0.11066 11.2884 0.162211 11.3474C0.213762 11.4064 0.274982 11.4532 0.342363 11.485C0.409744 11.5169 0.481958 11.5332 0.554862 11.5331H14.443C14.516 11.5332 14.5884 11.5169 14.6559 11.4851C14.7234 11.4533 14.7847 11.4065 14.8364 11.3476C14.8882 11.2886 14.9292 11.2186 14.9573 11.1415C14.9853 11.0644 14.9999 10.9817 15 10.8981V1.15544C14.9999 1.07191 14.9853 0.989206 14.9573 0.912088C14.9292 0.83497 14.8882 0.764912 14.8364 0.705953C14.7847 0.646995 14.7234 0.60028 14.6559 0.568457C14.5884 0.536634 14.516 0.520352 14.443 0.520509ZM13.6688 3.40935L7.83908 7.26675H7.37931L1.55173 3.41055C1.48634 3.36706 1.42908 3.30925 1.38322 3.24043C1.33735 3.17161 1.30378 3.09315 1.28443 3.00948C1.26507 2.92582 1.2603 2.83858 1.2704 2.75281C1.28049 2.66704 1.30525 2.58439 1.34326 2.50957C1.38127 2.43474 1.43179 2.36923 1.49193 2.31675C1.55207 2.26427 1.62065 2.22585 1.69377 2.2037C1.76688 2.18155 1.84309 2.1761 1.91804 2.18765C1.993 2.1992 2.06523 2.22753 2.13062 2.27103L7.60815 5.89646L13.0857 2.27103C13.1511 2.22753 13.2233 2.1992 13.2983 2.18765C13.3732 2.1761 13.4494 2.18155 13.5225 2.2037C13.5956 2.22585 13.6642 2.26427 13.7244 2.31675C13.7845 2.36923 13.835 2.43474 13.873 2.50957C13.9111 2.58439 13.9358 2.66704 13.9459 2.75281C13.956 2.83858 13.9512 2.92582 13.9319 3.00948C13.9125 3.09315 13.8789 3.17161 13.8331 3.24043C13.7872 3.30925 13.73 3.36706 13.6646 3.41055L13.6688 3.40935Z" fill="#030303"/>
</svg>
