<svg width="13" height="16" viewBox="0 0 13 16" fill="none" xmlns="http://www.w3.org/2000/svg">
<path d="M7.90194 9.91238C7.90194 9.88603 7.91862 9.86456 7.91862 9.84017V8.16293C7.91166 8.1162 7.90157 8.06993 7.88839 8.02438C8.54169 7.64481 9.07998 7.11461 9.45174 6.48456C9.82349 5.85452 10.0163 5.1457 10.0116 4.42595C10.0116 2.22671 8.43875 0.444092 6.5 0.444092C4.56126 0.444092 2.98838 2.22573 2.98838 4.42595C3.00508 5.14831 3.21518 5.85522 3.59943 6.48185C3.98368 7.10849 4.52978 7.63482 5.1877 8.01265C5.17215 8.06184 5.16065 8.1121 5.15331 8.16293V9.83821C5.15604 9.8517 5.15952 9.86507 5.16373 9.87822C2.19307 10.2217 0 11.7321 0 13.2259C0 14.9246 2.90916 15.4612 6.5 15.4612C10.0908 15.4612 13 14.9246 13 13.2259C12.999 11.7701 10.7955 10.3017 7.90194 9.91238Z" fill="#030303"/>
</svg>
