<svg width="14" height="24" viewBox="0 0 14 24" fill="none" xmlns="http://www.w3.org/2000/svg">
<path d="M12.3738 0.587891H1.62824C1.19674 0.588954 0.783231 0.755641 0.478113 1.05152C0.172995 1.34739 0.00109658 1.74838 0 2.1668V22.0352C0.00109658 22.4536 0.172995 22.8546 0.478113 23.1505C0.783231 23.4464 1.19674 23.6131 1.62824 23.6141H12.3738C12.8051 23.6131 13.2184 23.4463 13.5232 23.1504C13.828 22.8544 13.9995 22.4534 14 22.0352V2.1668C13.9995 1.74856 13.828 1.34757 13.5232 1.05164C13.2184 0.755707 12.8051 0.588956 12.3738 0.587891ZM3.94496 21.7966H2.19003C2.0347 21.7966 1.88573 21.7367 1.7759 21.6302C1.66606 21.5237 1.60436 21.3793 1.60436 21.2286C1.60436 21.078 1.66606 20.9336 1.7759 20.827C1.88573 20.7205 2.0347 20.6607 2.19003 20.6607H3.94496C4.10029 20.6607 4.24926 20.7205 4.3591 20.827C4.46893 20.9336 4.53063 21.078 4.53063 21.2286C4.53063 21.3793 4.46893 21.5237 4.3591 21.6302C4.24926 21.7367 4.10029 21.7966 3.94496 21.7966ZM3.94496 19.6326H2.19003C2.03498 19.6326 1.88627 19.5729 1.77663 19.4666C1.66699 19.3602 1.6054 19.216 1.6054 19.0657C1.6054 18.9153 1.66699 18.7711 1.77663 18.6648C1.88627 18.5585 2.03498 18.4988 2.19003 18.4988H3.94496C4.10002 18.4988 4.24872 18.5585 4.35836 18.6648C4.468 18.7711 4.5296 18.9153 4.5296 19.0657C4.5296 19.216 4.468 19.3602 4.35836 19.4666C4.24872 19.5729 4.10002 19.6326 3.94496 19.6326ZM3.94496 17.4706H2.19003C2.0347 17.4706 1.88573 17.4108 1.7759 17.3043C1.66606 17.1978 1.60436 17.0533 1.60436 16.9027C1.60436 16.7521 1.66606 16.6076 1.7759 16.5011C1.88573 16.3946 2.0347 16.3348 2.19003 16.3348H3.94496C4.10029 16.3348 4.24926 16.3946 4.3591 16.5011C4.46893 16.6076 4.53063 16.7521 4.53063 16.9027C4.53063 17.0533 4.46893 17.1978 4.3591 17.3043C4.24926 17.4108 4.10029 17.4706 3.94496 17.4706ZM3.94496 15.3067H2.19003C2.0347 15.3067 1.88573 15.2469 1.7759 15.1404C1.66606 15.0338 1.60436 14.8894 1.60436 14.7388C1.60436 14.5881 1.66606 14.4437 1.7759 14.3372C1.88573 14.2306 2.0347 14.1708 2.19003 14.1708H3.94496C4.10029 14.1708 4.24926 14.2306 4.3591 14.3372C4.46893 14.4437 4.53063 14.5881 4.53063 14.7388C4.53063 14.8894 4.46893 15.0338 4.3591 15.1404C4.24926 15.2469 4.10029 15.3067 3.94496 15.3067ZM7.87747 21.7976H6.12461C5.96928 21.7976 5.82032 21.7377 5.71048 21.6312C5.60065 21.5247 5.53894 21.3803 5.53894 21.2296C5.53894 21.079 5.60065 20.9346 5.71048 20.8281C5.82032 20.7216 5.96928 20.6617 6.12461 20.6617H7.87747C8.0328 20.6617 8.18176 20.7216 8.2916 20.8281C8.40143 20.9346 8.46314 21.079 8.46314 21.2296C8.46314 21.3803 8.40143 21.5247 8.2916 21.6312C8.18176 21.7377 8.0328 21.7976 7.87747 21.7976ZM7.87747 19.6336H6.12461C6.04784 19.6336 5.97181 19.6189 5.90088 19.5904C5.82995 19.5619 5.7655 19.5202 5.71121 19.4676C5.65693 19.4149 5.61386 19.3524 5.58448 19.2836C5.5551 19.2148 5.53998 19.1411 5.53998 19.0667C5.53998 18.9922 5.5551 18.9185 5.58448 18.8497C5.61386 18.7809 5.65693 18.7184 5.71121 18.6658C5.7655 18.6132 5.82995 18.5714 5.90088 18.5429C5.97181 18.5144 6.04784 18.4998 6.12461 18.4998H7.87747C7.95424 18.4998 8.03026 18.5144 8.1012 18.5429C8.17213 18.5714 8.23658 18.6132 8.29086 18.6658C8.34515 18.7184 8.38822 18.7809 8.4176 18.8497C8.44698 18.9185 8.4621 18.9922 8.4621 19.0667C8.4621 19.1411 8.44698 19.2148 8.4176 19.2836C8.38822 19.3524 8.34515 19.4149 8.29086 19.4676C8.23658 19.5202 8.17213 19.5619 8.1012 19.5904C8.03026 19.6189 7.95424 19.6336 7.87747 19.6336ZM7.87747 17.4717H6.12461C5.96928 17.4717 5.82032 17.4118 5.71048 17.3053C5.60065 17.1988 5.53894 17.0544 5.53894 16.9037C5.53894 16.7531 5.60065 16.6087 5.71048 16.5022C5.82032 16.3956 5.96928 16.3358 6.12461 16.3358H7.87747C8.0328 16.3358 8.18176 16.3956 8.2916 16.5022C8.40143 16.6087 8.46314 16.7531 8.46314 16.9037C8.46314 17.0544 8.40143 17.1988 8.2916 17.3053C8.18176 17.4118 8.0328 17.4717 7.87747 17.4717ZM7.87747 15.3077H6.12461C6.0477 15.3077 5.97154 15.293 5.90048 15.2645C5.82943 15.2359 5.76487 15.1941 5.71048 15.1413C5.6561 15.0886 5.61296 15.026 5.58352 14.9571C5.55409 14.8882 5.53894 14.8143 5.53894 14.7398C5.53894 14.6652 5.55409 14.5913 5.58352 14.5224C5.61296 14.4535 5.6561 14.3909 5.71048 14.3382C5.76487 14.2854 5.82943 14.2436 5.90048 14.2151C5.97154 14.1865 6.0477 14.1718 6.12461 14.1718H7.87747C7.95438 14.1718 8.03054 14.1865 8.10159 14.2151C8.17265 14.2436 8.23721 14.2854 8.2916 14.3382C8.34598 14.3909 8.38912 14.4535 8.41856 14.5224C8.44799 14.5913 8.46314 14.6652 8.46314 14.7398C8.46314 14.8143 8.44799 14.8882 8.41856 14.9571C8.38912 15.026 8.34598 15.0886 8.2916 15.1413C8.23721 15.1941 8.17265 15.2359 8.10159 15.2645C8.03054 15.293 7.95438 15.3077 7.87747 15.3077ZM11.81 21.7986H10.055C9.89971 21.7986 9.75074 21.7387 9.64091 21.6322C9.53107 21.5257 9.46937 21.3813 9.46937 21.2307C9.46937 21.08 9.53107 20.9356 9.64091 20.8291C9.75074 20.7226 9.89971 20.6627 10.055 20.6627H11.81C11.9653 20.6627 12.1143 20.7226 12.2241 20.8291C12.3339 20.9356 12.3956 21.08 12.3956 21.2307C12.3956 21.3813 12.3339 21.5257 12.2241 21.6322C12.1143 21.7387 11.9653 21.7986 11.81 21.7986ZM11.81 19.6346H10.055C9.89998 19.6346 9.75128 19.5749 9.64164 19.4686C9.532 19.3622 9.47041 19.218 9.47041 19.0677C9.47041 18.9173 9.532 18.7731 9.64164 18.6668C9.75128 18.5605 9.89998 18.5008 10.055 18.5008H11.81C11.965 18.5008 12.1137 18.5605 12.2234 18.6668C12.333 18.7731 12.3946 18.9173 12.3946 19.0677C12.3946 19.218 12.333 19.3622 12.2234 19.4686C12.1137 19.5749 11.965 19.6346 11.81 19.6346ZM11.81 17.4727H10.055C9.97813 17.4727 9.90197 17.458 9.83091 17.4294C9.75985 17.4009 9.69529 17.3591 9.64091 17.3063C9.58652 17.2536 9.54338 17.191 9.51395 17.1221C9.48452 17.0532 9.46937 16.9793 9.46937 16.9047C9.46937 16.8301 9.48452 16.7563 9.51395 16.6874C9.54338 16.6185 9.58652 16.5559 9.64091 16.5031C9.69529 16.4504 9.75985 16.4086 9.83091 16.38C9.90197 16.3515 9.97813 16.3368 10.055 16.3368H11.81C11.8869 16.3368 11.963 16.3515 12.0341 16.38C12.1052 16.4086 12.1697 16.4504 12.2241 16.5031C12.2785 16.5559 12.3216 16.6185 12.3511 16.6874C12.3805 16.7563 12.3956 16.8301 12.3956 16.9047C12.3956 16.9793 12.3805 17.0532 12.3511 17.1221C12.3216 17.191 12.2785 17.2536 12.2241 17.3063C12.1697 17.3591 12.1052 17.4009 12.0341 17.4294C11.963 17.458 11.8869 17.4727 11.81 17.4727ZM11.81 15.3087H10.055C9.89971 15.3087 9.75074 15.2489 9.64091 15.1423C9.53107 15.0358 9.46937 14.8914 9.46937 14.7408C9.46937 14.5901 9.53107 14.4457 9.64091 14.3392C9.75074 14.2327 9.89971 14.1728 10.055 14.1728H11.81C11.9653 14.1728 12.1143 14.2327 12.2241 14.3392C12.3339 14.4457 12.3956 14.5901 12.3956 14.7408C12.3956 14.8914 12.3339 15.0358 12.2241 15.1423C12.1143 15.2489 11.9653 15.3087 11.81 15.3087ZM12.433 12.8638H1.56905V2.44172H12.4299L12.433 12.8638Z" fill="#030303"/>
</svg>
