<svg width="15" height="16" viewBox="0 0 15 16" fill="none" xmlns="http://www.w3.org/2000/svg">
<path d="M7.49142 0.369631C6.00839 0.37133 4.55915 0.813174 3.32689 1.6393C2.09464 2.46542 1.13468 3.63873 0.568362 5.01094C0.00204669 6.38315 -0.145202 7.89263 0.145226 9.3486C0.435653 10.8046 1.15072 12.1417 2.20004 13.1909C3.24936 14.2401 4.58582 14.9543 6.0405 15.2432C7.49518 15.5321 9.00276 15.3828 10.3727 14.8141C11.7426 14.2454 12.9134 13.2829 13.737 12.0482C14.5607 10.8135 15.0002 9.36206 15 7.87734C14.9994 6.89078 14.8048 5.91397 14.4271 5.00273C14.0495 4.09149 13.4962 3.26366 12.799 2.56649C12.1017 1.86933 11.2741 1.3165 10.3634 0.939564C9.45277 0.562622 8.47685 0.368953 7.49142 0.369631ZM10.4004 10.4002C10.3273 10.5026 10.2166 10.5717 10.0926 10.5923C9.9686 10.613 9.84152 10.5834 9.73927 10.5103L6.95478 8.52204V4.31C6.9492 4.24452 6.95726 4.17862 6.97846 4.11643C6.99965 4.05424 7.03353 3.99712 7.07792 3.94872C7.12232 3.90032 7.17627 3.86167 7.23636 3.83524C7.29645 3.80881 7.36139 3.79516 7.42702 3.79516C7.49266 3.79516 7.55758 3.80881 7.61768 3.83524C7.67777 3.86167 7.73172 3.90032 7.77611 3.94872C7.82051 3.99712 7.85438 4.05424 7.87558 4.11643C7.89677 4.17862 7.90483 4.24452 7.89925 4.31V8.0355L10.2862 9.74094C10.3372 9.77644 10.3808 9.82165 10.4143 9.87399C10.4479 9.92634 10.4709 9.9848 10.4819 10.046C10.4929 10.1073 10.4917 10.17 10.4785 10.2308C10.4652 10.2916 10.4402 10.3492 10.4047 10.4002H10.4004Z" fill="#030303"/>
</svg>
